Coordinates
version=1
nRows=16
nColumns=42
inDegrees=yes

Units are S.I. units (second, meters, Newtons, ...)
If the header above contains a line with 'inDegrees', this indicates whether rotational values are in degrees (yes) or radians (no).

endheader
time	pelvis_tilt	pelvis_list	pelvis_rotation	pelvis_tx	pelvis_ty	pelvis_tz	hip_flexion_r	hip_adduction_r	hip_rotation_r	knee_angle_r	knee_adduction_r	knee_angle_r_beta	ankle_angle_r	subtalar_angle_r	mtp_angle_r	hip_flexion_l	hip_adduction_l	hip_rotation_l	knee_angle_l	knee_adduction_l	knee_angle_l_beta	ankle_angle_l	subtalar_angle_l	mtp_angle_l	lumbar_extension	lumbar_bending	lumbar_rotation	arm_flex_r	arm_add_r	arm_rot_r	elbow_flex_r	pro_sup_r	wrist_flex_r	wrist_dev_r	arm_flex_l	arm_add_l	arm_rot_l	elbow_flex_l	pro_sup_l	wrist_flex_l	wrist_dev_l
      0.46000000	     18.71671996	      6.30815511	      4.95320551	     -0.68957218	      0.96475736	     -0.14706694	     14.30443431	     -7.73690701	    -35.59114663	     19.59269841	     -7.96704236	      0.34195710	      7.41769626	     28.36818119	     -8.55001443	    -29.63836085	      5.13103679	    -20.60538258	     20.42554747	     -6.87019234	      0.35649305	     23.76007408	     37.24572430	     -8.55001443	    -40.00488489	     -2.57897224	     -2.03722406	     -4.88322408	    -15.43628825	    -12.92656872	     61.84747227	     90.00000001	      0.00000000	      0.00000000	     14.23695309	    -23.89049453	      9.25610561	     71.02515060	     90.00000001	      0.00000000	      0.00000000
      0.47000000	     18.23638605	      6.32456476	      5.41266186	     -0.67432087	      0.96257929	     -0.14696056	     14.89425063	     -7.69380997	    -35.13649856	     20.66555130	     -8.27724566	      0.36068191	      7.23359982	     27.69647351	     -8.53684535	    -29.69303466	      4.70475680	    -20.41303324	     21.23315710	     -7.05400200	      0.37058850	     23.46846105	     37.29619189	     -8.53684535	    -39.35712042	     -2.28033724	     -2.15921118	     -5.09510134	    -15.33701990	    -13.00440346	     61.49382530	     90.00000001	      0.00000000	      0.00000000	     14.11630004	    -23.78959222	      9.24261467	     71.10386384	     90.00000001	      0.00000000	      0.00000000
      0.48000000	     17.78789341	      6.26802993	      5.84794536	     -0.65889267	      0.96069515	     -0.14673225	     15.39219835	     -7.51017620	    -34.38989632	     21.88538758	     -8.64338506	      0.38197207	      6.90496152	     27.10351684	     -8.52810407	    -29.72387909	      4.20876269	    -20.10907079	     22.14658893	     -7.23108129	      0.38653089	     23.10281921	     37.23040702	     -8.52810407	    -38.74217807	     -1.93638253	     -2.20780374	     -5.28571332	    -15.23865759	    -13.08151724	     61.18576082	     90.00000001	      0.00000000	      0.00000000	     13.81738239	    -23.70454864	      9.21905741	     71.10934881	     90.00000001	      0.00000000	      0.00000000
      0.49000000	     17.39961102	      6.18338866	      6.22554854	     -0.64336860	      0.95926266	     -0.14645162	     15.71312660	     -7.19102231	    -32.36635684	     23.33999897	     -8.55951661	      0.40735983	      5.92040757	     22.49546001	     -8.47019766	    -29.74808678	      3.70603234	    -19.93313673	     23.06619661	     -7.50555936	      0.40258108	     21.87363329	     37.45098676	     -8.47019766	    -38.17333286	     -1.57312978	     -2.32733145	     -4.95686164	    -14.88878108	    -13.65473983	     59.96663211	     90.00000001	      0.00000000	      0.00000000	     13.20116733	    -23.43779407	      8.47679427	     71.50145507	     90.00000001	      0.00000000	      0.00000000
      0.50000000	     17.08130197	      6.02043681	      6.55373175	     -0.62769641	      0.95813876	     -0.14608527	     15.97892705	     -6.82868313	    -30.82209713	     24.90080310	     -8.63977645	      0.43460100	      4.92927029	     19.73923970	     -8.41928708	    -29.76503839	      3.14506313	    -19.48228491	     24.15404638	     -7.68144571	      0.42156764	     20.62511213	     37.25859802	     -8.41928708	    -37.67083145	     -1.13038874	     -2.28070503	     -5.01389396	    -14.80879156	    -13.78385297	     59.55289218	     90.00000001	      0.00000000	      0.00000000	     12.66429000	    -23.16896741	      8.04697401	     71.55989528	     90.00000001	      0.00000000	      0.00000000
      0.51000000	     16.85979214	      5.78735423	      6.82250123	     -0.61191414	      0.95742162	     -0.14562196	     16.11539507	     -6.37817042	    -29.22243360	     26.53133981	     -8.63572240	      0.46305923	      3.87549412	     16.79693261	     -8.36211265	    -29.77346415	      2.54142029	    -18.95305183	     25.39260704	     -7.85884230	      0.44318460	     19.07859631	     36.92886299	     -8.36211265	    -37.25951035	     -0.63699343	     -2.17065334	     -4.96370435	    -14.73204348	    -13.93579368	     59.03876050	     90.00000001	      0.00000000	      0.00000000	     12.01396919	    -22.87187065	      7.51124374	     71.64603384	     90.00000001	      0.00000000	      0.00000000
      0.52000000	     16.75802453	      5.52410831	      7.05016432	     -0.59604475	      0.95715303	     -0.14508765	     16.12486235	     -5.93793868	    -28.10997598	     28.19723923	     -8.75718466	      0.49213466	      3.07507317	     15.12188601	     -8.33908098	    -29.77995401	      1.92351269	    -18.29581830	     26.79967016	     -8.01473309	      0.46774248	     16.71738946	     36.41424717	     -8.33908098	    -36.97454901	     -0.10506560	     -2.00008206	     -4.94524783	    -14.68840150	    -14.05068439	     58.68058454	     90.00000001	      0.00000000	      0.00000000	     11.32174541	    -22.62368268	      7.13728839	     71.66475756	     90.00000001	      0.00000000	      0.00000000
      0.53000000	     16.76537498	      5.20929141	      7.17544777	     -0.58031025	      0.95740663	     -0.14438736	     15.87321375	     -5.29317116	    -25.82674438	     29.75522416	     -8.30246536	      0.51932663	      2.10462131	     11.09872348	     -8.28634076	    -29.77408065	      1.34775266	    -17.27464981	     28.39287977	     -8.06222755	      0.49554924	     14.36074220	     35.12076107	     -8.28634076	    -36.84558009	      0.43944218	     -1.75857449	     -4.73851453	    -14.68172943	    -14.17106394	     58.15459286	     90.00000001	      0.00000000	      0.00000000	     10.51854070	    -22.16767234	      6.26828638	     71.76364647	     90.00000001	      0.00000000	      0.00000000
      0.54000000	     16.90917571	      4.88537863	      7.26034179	     -0.56454577	      0.95812042	     -0.14360877	     15.45058659	     -4.67549990	    -24.09997768	     31.26057422	     -7.95816194	      0.54559995	      1.63555868	      8.44394283	     -8.23862371	    -29.76500275	      0.80043378	    -15.98498103	     30.20045236	     -8.01037963	      0.52709733	     11.35852947	     33.18797886	     -8.23862371	    -36.86626497	      0.99259404	     -1.45096815	     -4.58293488	    -14.70865883	    -14.22867410	     57.82356103	     90.00000001	      0.00000000	      0.00000000	      9.74346700	    -21.79975606	      5.66543351	     71.76225864	     90.00000001	      0.00000000	      0.00000000
      0.55000000	     17.19029984	      4.54752421	      7.29211439	     -0.54886956	      0.95932119	     -0.14271695	     14.79806173	     -4.01379426	    -22.46517304	     32.63667451	     -7.53725405	      0.56961743	      1.54620003	      6.11864527	     -8.19165936	    -29.75005592	      0.31049859	    -14.35136794	     32.20997763	     -7.81901627	      0.56217016	      7.98486038	     30.30563132	     -8.19165936	    -37.06545495	      1.54667735	     -1.08560732	     -4.37820672	    -14.76167406	    -14.25719092	     57.55879398	     90.00000001	      0.00000000	      0.00000000	      8.98105752	    -21.45647042	      5.05453189	     71.73135185	     90.00000001	      0.00000000	      0.00000000
      0.56000000	     17.62700123	      4.25818604	      7.26348410	     -0.53321659	      0.96091032	     -0.14181881	     13.88405649	     -3.41584137	    -21.21129963	     33.83090360	     -7.18394341	      0.59046066	      1.92740004	      4.73114892	     -8.16449658	    -29.72082170	     -0.08595736	    -12.65205745	     34.47993555	     -7.58569983	      0.60178840	      4.34317473	     27.23898400	     -8.16449658	    -37.42280747	      2.03639516	     -0.67549275	     -4.20340375	    -14.85179212	    -14.27454474	     57.41160562	     90.00000001	      0.00000000	      0.00000000	      8.20849731	    -21.08722575	      4.56093092	     71.68632720	     90.00000001	      0.00000000	      0.00000000
      0.57000000	     18.13036633	      3.97586133	      7.19007751	     -0.51779273	      0.96292360	     -0.14077020	     12.77276506	     -2.77778724	    -20.06938567	     34.76203299	     -6.80576847	      0.60671193	      2.45826524	      3.13635742	     -8.12328767	    -29.67758172	     -0.37347899	     -9.96881364	     36.90446508	     -6.74498593	      0.64410442	      1.14841442	     22.32444943	     -8.12328767	    -37.91291169	      2.48195586	     -0.27318235	     -3.90905732	    -14.96036727	    -14.21109679	     57.26232686	     90.00000001	      0.00000000	      0.00000000	      7.42580625	    -20.73731083	      3.93762799	     71.56740482	     90.00000001	      0.00000000	      0.00000000
      0.58000000	     18.77358569	      3.72032591	      7.08954028	     -0.50244052	      0.96524135	     -0.13970430	     11.40591055	     -2.17400851	    -19.53791640	     35.44367344	     -6.67189534	      0.61860880	      3.43963919	      2.66917654	     -8.08693637	    -29.59660329	     -0.60817243	     -7.43996461	     39.50397740	     -5.89664628	      0.68947447	     -2.08679577	     17.80171609	     -8.08693637	    -38.54839150	      2.89406047	      0.16409815	     -3.66754194	    -15.09069383	    -14.12653620	     57.27078110	     90.00000001	      0.00000000	      0.00000000	      6.67283835	    -20.42998262	      3.46325476	     71.43253341	     90.00000001	      0.00000000	      0.00000000
      0.59000000	     19.50431712	      3.52686230	      6.95769651	     -0.48729894	      0.96779395	     -0.13861891	      9.84301865	     -1.67779843	    -19.52916471	     35.91110154	     -6.69805527	      0.62676696	      4.61610343	      2.99909684	     -8.05368120	    -29.44359301	     -0.74903019	     -4.93896552	     42.24244248	     -4.93717739	      0.73726971	     -4.87560169	     13.45195616	     -8.05368120	    -39.30837684	      3.20401737	      0.61470241	     -3.39815619	    -15.25683984	    -14.00324955	     57.36606489	     90.00000001	      0.00000000	      0.00000000	      6.00355134	    -20.16922144	      3.05351207	     71.26910437	     90.00000001	      0.00000000	      0.00000000
      0.60000000	     20.22604514	      3.35220788	      6.79965095	     -0.47234940	      0.97047926	     -0.13746467	      8.18419710	     -1.21336384	    -19.93819464	     36.09687250	     -6.91601669	      0.63000927	      5.98496251	      3.91638294	     -8.02414938	    -29.10186693	     -0.83446032	     -2.63927607	     45.09911264	     -3.95764272	      0.78712801	     -7.24371264	      9.46329042	     -8.02414938	    -40.07587863	      3.45441587	      1.07918131	     -3.14009974	    -15.40461951	    -13.83935440	     57.55502647	     90.00000001	      0.00000000	      0.00000000	      5.33950092	    -19.91871366	      2.70104756	     71.03995287	     90.00000001	      0.00000000	      0.00000000
      0.61000000	     20.73171895	      3.21273130	      6.68971860	     -0.45773862	      0.97302391	     -0.13632188	      6.70832822	     -0.84939926	    -20.73135511	     36.12056585	     -7.28087512	      0.63042280	      7.33665358	      5.36805538	     -7.99086952	    -28.31659895	     -0.84204384	     -0.35755841	     48.11699365	     -2.92441123	      0.83979997	     -8.78832086	      5.81062951	     -7.99086952	    -40.65121400	      3.64041808	      1.46086760	     -2.81725490	    -15.55271776	    -13.64640094	     57.68572504	     90.00000001	      0.00000000	      0.00000000	      4.75958417	    -19.71760119	      2.39711193	     70.67011141	     90.00000001	      0.00000000	      0.00000000
